<?xml version="1.0" standalone="no"?>
<!DOCTYPE svg PUBLIC "-//W3C//DTD SVG 20010904//EN"
 "http://www.w3.org/TR/2001/REC-SVG-20010904/DTD/svg10.dtd">
<svg version="1.0" xmlns="http://www.w3.org/2000/svg"
 width="656.000000pt" height="656.000000pt" viewBox="0 0 656.000000 656.000000"
 preserveAspectRatio="xMidYMid meet">
<metadata>
Created by potrace 1.14, written by Peter Selinger 2001-2017
</metadata>
<g transform="translate(0.000000,656.000000) scale(0.100000,-0.100000)"
fill="#000000" stroke="none">
<path d="M1894 6287 c-20 -10 -38 -16 -41 -13 -3 3 -12 -2 -20 -10 -8 -8 -19
-12 -24 -9 -5 4 -9 1 -9 -4 0 -6 -3 -10 -7 -9 -5 1 -25 -6 -47 -15 -21 -9 -40
-17 -43 -17 -2 0 -23 -9 -46 -19 -82 -37 -117 -50 -117 -43 0 4 -4 2 -8 -3 -4
-6 -34 -20 -67 -33 -33 -13 -73 -29 -88 -37 -16 -8 -32 -15 -37 -15 -4 0 -25
-8 -46 -17 -22 -9 -41 -17 -44 -18 -3 0 -27 -11 -54 -23 -27 -12 -54 -22 -62
-22 -7 0 -19 -6 -26 -13 -7 -7 -15 -13 -18 -13 -3 0 -21 -6 -40 -14 -19 -7
-38 -13 -42 -14 -3 -1 -10 -4 -14 -8 -4 -5 -16 -8 -26 -8 -10 0 -18 -4 -18
-10 0 -5 -8 -10 -17 -10 -10 0 -42 -11 -71 -25 -29 -13 -55 -24 -57 -24 -3 0
-27 -10 -53 -21 -26 -12 -55 -22 -64 -23 -10 -1 -18 -4 -18 -8 0 -7 -27 -19
-55 -25 -13 -3 -178 -74 -183 -79 -2 -2 4 -15 13 -29 9 -14 17 -29 17 -33 1
-12 9 -35 23 -68 8 -16 11 -33 9 -37 -3 -4 0 -8 5 -8 6 0 11 -6 11 -13 0 -14
30 -16 63 -4 9 4 25 10 35 14 21 8 31 10 62 16 14 3 25 6 25 7 0 1 14 3 32 6
18 2 49 7 70 12 65 13 193 7 283 -13 14 -4 30 -7 37 -9 7 -1 16 -5 19 -9 4 -4
16 -7 26 -7 10 0 18 -3 18 -7 0 -5 20 -16 44 -26 24 -10 47 -25 50 -33 3 -8
11 -14 18 -14 7 0 43 -33 81 -73 86 -92 97 -105 97 -116 0 -5 3 -11 8 -13 4
-1 18 -24 31 -50 13 -27 28 -48 34 -48 5 0 7 -6 4 -14 -3 -7 4 -21 14 -30 11
-9 17 -21 14 -26 -3 -6 -1 -10 6 -10 7 0 9 -3 6 -6 -3 -4 2 -18 13 -32 11 -13
17 -28 14 -33 -3 -5 -1 -9 3 -9 8 0 46 -75 47 -93 1 -4 8 -12 16 -17 8 -5 12
-10 8 -10 -4 0 9 -34 27 -75 19 -41 32 -75 29 -75 -3 0 2 -7 10 -16 9 -8 16
-22 16 -30 0 -8 8 -33 19 -57 10 -23 24 -58 31 -77 7 -19 16 -44 20 -55 5 -11
14 -38 21 -60 6 -22 16 -46 22 -52 5 -7 7 -13 4 -13 -3 0 6 -30 20 -67 14 -38
25 -76 25 -85 -1 -10 4 -18 9 -18 6 0 7 -4 4 -10 -3 -5 -2 -10 3 -10 6 0 9 -6
8 -12 -1 -16 31 -120 51 -167 8 -18 16 -39 17 -45 1 -6 5 -17 9 -23 5 -7 5
-13 1 -13 -3 0 -1 -7 6 -15 7 -8 9 -15 5 -15 -4 0 -2 -7 5 -15 7 -8 9 -15 5
-15 -4 0 -2 -7 5 -15 7 -8 9 -15 6 -15 -4 0 -1 -10 6 -22 7 -13 14 -34 16 -48
2 -13 7 -29 11 -35 5 -5 11 -22 15 -37 3 -15 11 -40 18 -55 6 -15 12 -33 14
-40 4 -21 105 -317 115 -338 5 -11 11 -29 12 -40 2 -11 6 -27 10 -35 3 -8 8
-24 13 -35 4 -11 8 -24 9 -30 5 -19 66 -200 75 -220 11 -25 34 -99 32 -102 -1
-2 9 -27 22 -56 12 -29 22 -60 20 -70 -1 -9 2 -17 7 -17 5 0 9 -10 9 -23 0
-13 3 -27 7 -31 10 -9 33 -78 33 -98 0 -9 4 -18 9 -20 6 -1 12 -14 14 -28 2
-14 7 -32 10 -40 3 -8 16 -44 27 -80 11 -36 24 -72 27 -80 3 -8 7 -17 8 -20 2
-11 37 -116 42 -130 4 -8 7 -17 8 -20 1 -3 5 -12 8 -20 4 -8 8 -24 10 -35 2
-11 9 -33 15 -48 7 -16 12 -34 12 -41 0 -6 5 -17 12 -24 7 -7 8 -12 4 -12 -5
0 -4 -6 1 -12 9 -12 21 -48 29 -88 2 -8 7 -23 13 -35 9 -19 59 -165 67 -195 9
-37 48 -146 53 -150 3 -3 7 -11 9 -18 1 -7 4 -20 6 -30 3 -16 6 -25 23 -69 3
-10 7 -20 8 -23 3 -12 27 -86 32 -100 4 -8 7 -18 8 -22 2 -5 4 -10 5 -13 3 -5
3 -6 15 -50 4 -16 12 -36 18 -42 5 -7 6 -13 2 -13 -4 0 -2 -7 5 -15 7 -8 10
-15 6 -15 -4 0 0 -13 9 -30 9 -16 13 -30 10 -30 -3 0 1 -13 9 -29 9 -16 12
-31 9 -35 -4 -3 -1 -6 5 -6 6 0 9 -7 6 -15 -4 -8 -1 -15 6 -15 6 0 9 -4 6 -9
-3 -5 1 -21 9 -37 7 -15 12 -31 9 -36 -3 -4 -1 -8 3 -8 5 0 10 -12 11 -26 1
-14 5 -31 9 -37 13 -20 72 -201 68 -206 -3 -2 3 -10 13 -17 11 -8 21 -9 29 -2
7 5 18 6 25 2 17 -11 49 -11 72 -1 12 6 16 6 12 -2 -5 -8 0 -8 18 -1 17 6 27
6 32 -1 4 -7 10 -6 19 1 8 7 15 7 19 1 7 -10 25 -9 44 3 7 4 19 3 27 -4 9 -8
15 -8 20 0 5 8 10 8 20 0 11 -9 18 -5 32 17 9 15 22 31 28 35 5 4 6 8 1 8 -5
0 -3 6 3 13 6 8 8 17 4 20 -3 4 -1 7 6 7 7 0 9 4 6 10 -3 5 -2 10 3 10 5 0 17
18 27 40 10 22 21 40 24 40 4 0 7 9 8 20 1 11 9 27 17 36 9 8 16 19 16 24 0 5
13 32 30 60 16 27 26 50 22 50 -4 0 -2 4 3 8 6 4 30 46 54 95 24 48 48 87 53
87 4 0 8 3 7 8 -2 16 14 52 24 52 6 0 8 3 5 6 -3 3 11 36 31 73 21 37 48 89
61 117 13 27 26 51 29 54 4 3 26 44 51 92 115 223 141 272 148 277 4 4 9 15
10 26 2 11 9 23 15 27 7 4 13 11 13 15 3 21 29 73 37 73 4 0 6 4 3 9 -3 5 1
14 9 21 8 7 15 18 15 24 0 6 11 28 25 49 14 20 24 41 21 46 -3 5 1 12 9 15 8
3 14 9 13 13 -3 10 32 76 44 84 5 3 10 10 10 15 1 17 11 39 26 57 8 9 11 17 7
17 -4 0 0 9 10 20 10 11 14 20 9 20 -5 0 -4 4 1 8 6 4 21 30 35 57 14 28 30
53 35 57 6 4 6 8 1 8 -5 0 -3 8 5 18 8 9 25 40 38 67 13 28 31 58 39 68 8 9
12 17 8 17 -4 0 1 12 12 28 10 15 27 46 37 70 11 23 22 42 27 42 4 0 8 6 8 14
0 8 16 42 34 75 19 34 32 61 28 61 -4 0 -2 4 4 8 14 10 115 202 106 202 -4 0
0 6 8 13 9 7 22 28 30 47 7 19 20 41 29 48 9 7 15 15 14 17 -4 7 51 119 60
123 4 2 7 10 7 17 0 8 7 21 16 29 8 9 13 16 10 16 -6 0 51 109 65 124 5 6 9
18 9 27 0 9 7 20 16 23 8 3 13 10 10 15 -4 5 1 17 10 25 8 9 13 16 10 16 -4 0
6 19 21 42 14 24 26 49 26 55 0 7 4 13 9 13 4 0 8 7 8 15 0 8 4 15 10 15 5 0
9 3 8 8 -2 7 32 83 41 92 4 3 19 33 35 68 16 34 34 62 38 62 5 0 7 4 4 8 -3 5
4 21 15 38 10 16 19 37 19 47 0 9 4 17 9 17 9 0 46 79 43 93 -1 4 2 7 7 7 8 0
26 39 29 63 1 4 8 15 17 23 8 9 15 24 15 33 0 10 7 24 15 31 8 7 15 17 15 22
0 6 11 32 24 58 13 27 22 51 19 54 -4 3 -2 6 4 6 6 0 14 10 18 23 4 12 8 24 9
27 1 3 18 40 39 83 20 44 37 80 37 83 0 2 12 29 27 61 15 32 26 64 25 71 -2 6
2 12 8 12 5 0 10 8 10 18 0 10 3 22 8 26 4 4 7 11 7 14 1 4 9 22 18 39 10 18
17 35 16 38 0 3 13 40 29 83 38 97 45 115 47 125 2 4 3 8 4 10 2 1 4 13 7 26
2 14 9 30 15 38 6 7 8 13 4 13 -4 0 -2 7 5 15 6 8 9 18 6 23 -3 6 1 15 9 22 8
7 13 16 10 20 -2 4 1 24 7 46 7 21 13 42 14 47 1 4 2 8 4 10 4 5 18 71 26 121
3 22 8 45 12 50 3 6 7 39 8 75 1 37 3 66 4 66 7 0 4 83 -3 93 -6 8 -5 12 2 12
7 0 9 5 4 12 -4 7 -8 24 -10 38 -4 44 -10 74 -18 95 -24 67 -30 81 -42 93 -7
8 -11 18 -8 23 4 5 1 9 -4 9 -6 0 -11 7 -11 16 0 8 -4 12 -10 9 -5 -3 -10 -1
-10 5 0 31 -160 135 -224 146 -11 2 -52 9 -91 16 -70 14 -229 15 -295 3 -132
-23 -135 -24 -220 -63 -19 -9 -38 -21 -42 -27 -4 -5 -8 -7 -8 -3 0 13 -110
-84 -110 -96 0 -4 -6 -14 -12 -21 -31 -35 -38 -45 -38 -58 0 -7 -4 -17 -9 -22
-8 -9 -33 -77 -36 -100 -1 -5 -3 -12 -4 -15 -17 -36 -17 -380 0 -380 3 0 6
-16 7 -35 1 -20 4 -41 8 -46 3 -6 8 -27 10 -47 5 -40 11 -74 15 -82 1 -3 3 -9
4 -15 1 -5 7 -28 13 -50 6 -22 13 -53 16 -70 2 -16 5 -30 6 -30 1 0 4 -11 6
-25 10 -52 13 -65 14 -65 2 0 4 -14 14 -85 4 -25 9 -54 13 -65 3 -11 7 -31 8
-45 2 -14 6 -45 10 -70 4 -25 8 -72 10 -105 2 -33 5 -61 6 -62 5 -8 4 -30 -3
-45 -4 -9 -4 -19 0 -22 10 -6 8 -68 -2 -84 -4 -7 -2 -12 4 -12 6 0 8 -4 5 -10
-3 -5 -8 -22 -10 -37 -7 -56 -19 -112 -34 -160 -5 -17 -7 -34 -3 -37 3 -3 1
-6 -4 -6 -5 0 -10 -8 -11 -17 -1 -10 -7 -31 -14 -48 -7 -16 -14 -38 -16 -49
-2 -10 -10 -33 -19 -51 -9 -19 -17 -40 -18 -48 -1 -8 -7 -21 -13 -28 -6 -8
-12 -18 -13 -24 -7 -35 -15 -51 -136 -300 -54 -110 -98 -202 -99 -205 -1 -3
-24 -51 -53 -108 -28 -56 -49 -102 -46 -102 3 0 -2 -7 -10 -16 -9 -8 -16 -22
-16 -30 0 -8 -5 -14 -12 -14 -6 0 -8 -3 -5 -7 4 -3 0 -17 -8 -30 -9 -13 -13
-23 -10 -23 4 0 -1 -7 -9 -16 -9 -8 -14 -19 -11 -24 3 -5 0 -12 -5 -15 -10 -6
-31 -51 -31 -65 0 -3 -7 -13 -16 -22 -8 -9 -12 -22 -8 -27 3 -6 2 -11 -3 -11
-5 0 -24 -34 -43 -75 -18 -41 -37 -75 -42 -75 -4 0 -5 -4 -2 -10 3 -5 1 -10
-4 -10 -6 0 -10 -3 -9 -7 2 -5 -15 -44 -37 -88 -22 -44 -40 -83 -40 -87 0 -4
-7 -15 -15 -25 -8 -10 -17 -27 -18 -38 -2 -11 -8 -21 -13 -23 -5 -2 -9 -12 -9
-23 0 -10 -4 -19 -10 -19 -5 0 -9 -3 -8 -7 1 -5 -25 -62 -57 -128 -33 -66 -60
-124 -60 -128 0 -4 -6 -11 -13 -16 -8 -5 -13 -12 -12 -17 1 -11 -32 -87 -41
-94 -3 -3 -10 -16 -14 -30 -4 -14 -12 -28 -17 -31 -5 -3 -10 -15 -11 -27 0
-12 -7 -24 -14 -26 -7 -3 -13 -12 -13 -20 0 -16 -31 -78 -43 -87 -5 -3 -8 -9
-8 -13 2 -14 -32 -86 -41 -86 -5 0 -7 -4 -3 -9 3 -5 -1 -16 -9 -24 -8 -8 -12
-17 -9 -21 4 -3 2 -6 -4 -6 -9 0 -21 23 -27 55 -1 6 -5 17 -8 25 -6 13 -30 86
-33 100 -1 3 -5 13 -9 22 -4 9 -9 22 -10 30 -2 7 -6 20 -9 28 -28 70 -65 189
-60 194 4 3 1 6 -6 6 -7 0 -10 4 -6 9 3 5 0 13 -6 16 -5 4 -8 13 -5 21 3 8 1
14 -4 14 -6 0 -9 3 -8 8 0 4 -1 14 -4 22 -3 8 -16 44 -28 80 -12 36 -25 72
-28 80 -3 8 -7 22 -8 30 -1 8 -9 29 -18 45 -9 17 -16 37 -16 46 0 9 -8 34 -17
55 -9 22 -16 45 -14 52 1 6 -2 12 -7 12 -5 0 -9 6 -9 13 0 6 -24 80 -52 162
-29 83 -54 155 -55 160 -2 6 -6 17 -9 25 -21 55 -70 207 -70 218 0 6 -4 12 -7
12 -4 0 -11 15 -15 33 -4 17 -8 34 -9 37 -1 3 -6 19 -13 35 -21 55 -26 70 -28
80 -5 20 -66 201 -75 220 -11 25 -40 116 -41 130 0 6 -4 15 -8 20 -4 6 -16 38
-27 73 -10 34 -22 62 -26 62 -4 0 -5 7 -2 15 4 8 1 15 -5 15 -6 0 -8 7 -4 16
3 9 1 19 -5 23 -6 4 -14 18 -16 31 -2 14 -5 25 -6 25 -1 0 -3 7 -5 15 -2 8
-19 58 -38 110 -18 52 -35 100 -37 105 -6 24 -10 33 -30 90 -12 33 -24 67 -25
75 -2 8 -4 16 -5 18 -2 1 -4 7 -5 12 -1 6 -4 13 -5 18 -1 4 -2 10 -1 15 0 4
-4 7 -11 7 -6 0 -9 3 -6 6 4 3 -7 42 -24 87 -16 45 -31 91 -34 102 -4 20 -18
61 -34 100 -5 11 -23 65 -41 120 -18 55 -35 102 -38 105 -3 3 -7 11 -9 18 -1
7 -4 20 -6 30 -3 20 -13 46 -29 82 -6 14 -10 29 -9 33 1 4 -5 21 -13 37 -9 16
-15 31 -15 32 1 2 -1 10 -4 18 -3 8 -21 62 -40 120 -19 58 -40 119 -47 135 -6
17 -13 37 -14 45 -2 8 -22 67 -44 130 -23 63 -44 123 -46 133 -2 9 -7 22 -10
27 -4 6 -8 21 -11 35 -2 13 -9 37 -16 52 -6 16 -12 30 -12 33 -1 3 -5 11 -9
18 -5 6 -6 16 -3 21 4 5 3 11 -2 13 -8 3 -58 149 -54 161 1 4 -3 7 -10 7 -6 0
-9 3 -6 6 4 3 0 20 -7 39 -8 18 -11 35 -8 39 4 3 1 6 -6 6 -7 0 -9 5 -6 10 8
13 12 13 -142 14 -111 1 -138 -1 -169 -17z"/>
</g>
</svg>
